<svg xmlns="http://www.w3.org/2000/svg" width="58" height="39" viewBox="0 0 58 39">
    <defs>
        <filter id="a" width="129.6%" height="145.7%" x="-14.8%" y="-22.9%" filterUnits="objectBoundingBox">
            <feOffset dy="2" in="SourceAlpha" result="shadowOffsetOuter1"/>
            <feGaussianBlur in="shadowOffsetOuter1" result="shadowBlurOuter1" stdDeviation="1"/>
            <feColorMatrix in="shadowBlurOuter1" result="shadowMatrixOuter1" values="0 0 0 0 0 0 0 0 0 0 0 0 0 0 0 0 0 0 0.117385643 0"/>
            <feMerge>
                <feMergeNode in="shadowMatrixOuter1"/>
                <feMergeNode in="SourceGraphic"/>
            </feMerge>
        </filter>
    </defs>
    <g fill="none" fill-rule="evenodd">
        <path fill="#FFF" fill-rule="nonzero" d="M52.2 35H1.8C.808 35 0 34.165 0 33.134V1.866C0 .836.807 0 1.8 0h50.4c.993 0 1.8.835 1.8 1.866v31.268c0 1.03-.807 1.866-1.8 1.866z" filter="url(#a)" transform="translate(2)"/>
        <path fill="#5F6368" fill-rule="nonzero" d="M28.134 17.281v3.725h-1.182v-9.199h3.134a2.834 2.834 0 0 1 2.03.797 2.56 2.56 0 0 1 .847 1.941 2.548 2.548 0 0 1-.847 1.952c-.548.523-1.225.784-2.03.783h-1.952v.001zm0-4.341v3.21h1.982c.439.014.863-.159 1.169-.475a1.568 1.568 0 0 0 0-2.248 1.541 1.541 0 0 0-1.17-.488h-1.981zm7.552 1.567c.874 0 1.563.233 2.068.7.506.467.758 1.107.758 1.92v3.879h-1.13v-.874h-.052c-.489.72-1.14 1.08-1.952 1.08-.693 0-1.273-.206-1.74-.617a1.968 1.968 0 0 1-.7-1.541c0-.652.246-1.17.738-1.554.492-.385 1.15-.578 1.971-.579.702 0 1.28.129 1.734.386v-.27a1.345 1.345 0 0 0-.488-1.046 1.673 1.673 0 0 0-1.14-.431c-.66 0-1.183.278-1.568.835l-1.04-.655c.572-.822 1.42-1.233 2.541-1.233zm-1.529 4.572a.944.944 0 0 0 .392.77c.262.206.586.315.919.31.498-.002.976-.2 1.329-.553.391-.368.587-.8.587-1.297-.369-.293-.882-.44-1.541-.44-.48 0-.88.116-1.201.347-.324.235-.485.52-.485.863zM45 14.712l-3.946 9.068h-1.22l1.465-3.173-2.595-5.895h1.285l1.875 4.521h.026l1.823-4.52H45z"/>
        <path fill="#4285F4" d="M23.359 16.478c0-.36-.03-.72-.091-1.074h-4.984v2.035h2.855a2.446 2.446 0 0 1-1.056 1.606v1.32h1.704c.997-.919 1.572-2.279 1.572-3.887z"/>
        <path fill="#34A853" d="M18.284 21.642c1.426 0 2.627-.468 3.503-1.275l-1.704-1.321c-.474.321-1.084.504-1.799.504-1.378 0-2.548-.929-2.966-2.18h-1.755v1.36a5.284 5.284 0 0 0 4.721 2.912z"/>
        <path fill="#FBBC04" d="M15.318 17.37a3.166 3.166 0 0 1 0-2.024v-1.361h-1.755a5.284 5.284 0 0 0 0 4.746l1.755-1.362z"/>
        <path fill="#EA4335" d="M18.284 13.165a2.869 2.869 0 0 1 2.028.793l1.508-1.508a5.077 5.077 0 0 0-3.536-1.377 5.284 5.284 0 0 0-4.721 2.912l1.755 1.361c.418-1.252 1.588-2.18 2.966-2.18z"/>
    </g>
</svg>
