<svg width="58" height="39" viewBox="0 1 58 39" fill="none" xmlns="http://www.w3.org/2000/svg"><g filter="url(#a)"><path d="M54.2 36H3.8c-.993 0-1.8-.835-1.8-1.866V2.866C2 1.836 2.807 1 3.8 1h50.4c.993 0 1.8.835 1.8 1.866v31.268c0 1.03-.807 1.866-1.8 1.866z" fill="#fff"/></g><path fill-rule="evenodd" clip-rule="evenodd" d="M37.83 13.964c.54 0 1.059.208 1.447.58l.025.025 2.232 2.215a.512.512 0 0 0 .706.014l.014-.014 2.223-2.207a2.09 2.09 0 0 1 1.437-.605h.811a.23.23 0 0 1 .231.23.23.23 0 0 1-.218.229h-.789c-.418 0-.82.16-1.12.448l-.025.023-2.223 2.207a.977.977 0 0 1-1.356.017l-.018-.017-2.232-2.215a1.625 1.625 0 0 0-1.11-.47h-.989a.23.23 0 0 1-.231-.23.23.23 0 0 1 .218-.23h.967zm0 7.004a2.09 2.09 0 0 0 1.447-.58l.025-.025 2.232-2.215a.512.512 0 0 1 .706-.014l.014.014 2.223 2.207a2.09 2.09 0 0 0 1.437.605h.811a.23.23 0 0 0 .231-.23.23.23 0 0 0-.218-.229h-.789c-.418 0-.82-.16-1.12-.447l-.025-.024-2.223-2.207a.977.977 0 0 0-1.356-.017l-.018.017-2.232 2.215a1.625 1.625 0 0 1-1.11.47l-.035.001h-.954a.23.23 0 0 0-.231.23.23.23 0 0 0 .218.229h.967zm-2.8.049a.23.23 0 0 0 .231-.217v-5.583c0-.681-.55-1.235-1.234-1.248h-.986a.23.23 0 0 0-.231.23.23.23 0 0 0 .218.229h.975c.433 0 .785.342.796.769v5.59c0 .127.104.23.231.23zm-9.823 3.352a.23.23 0 0 0 .23-.217l.001-.013v-7.456c0-1.232.997-2.234 2.234-2.253h.037l2.218.002a2.26 2.26 0 0 1 2.263 2.214v1.624a2.263 2.263 0 0 1-2.234 2.254h-3.171a.23.23 0 0 0-.232.23.23.23 0 0 0 .219.23h3.147a2.724 2.724 0 0 0 2.733-2.67v-1.631a2.72 2.72 0 0 0-2.68-2.71h-.044l-2.218-.003a2.724 2.724 0 0 0-2.734 2.668v7.501c0 .127.103.23.23.23z" fill="#939598"/><path d="m34.824 13.336-.436-.433a.274.274 0 0 1 0-.39l.436-.432a.28.28 0 0 1 .392 0l.437.433a.274.274 0 0 1 0 .389l-.437.433a.279.279 0 0 1-.392 0z" fill="#32BCAD"/><path fill-rule="evenodd" clip-rule="evenodd" d="M12.834 15.727c.479 0 .929.185 1.268.52l1.837 1.825a.342.342 0 0 0 .481 0l1.83-1.818a1.789 1.789 0 0 1 1.269-.52h.22l-2.325-2.309a1.864 1.864 0 0 0-2.622 0l-2.319 2.302h.36zm6.685 6.427c-.48 0-.93-.186-1.268-.521l-1.831-1.817a.35.35 0 0 0-.481 0l-1.837 1.823a1.789 1.789 0 0 1-1.268.521h-.361l2.318 2.301a1.864 1.864 0 0 0 2.623 0l2.325-2.307h-.22zm.738-5.907 1.405 1.395a1.83 1.83 0 0 1 0 2.603l-1.405 1.394a.27.27 0 0 0-.1-.02h-.638a1.27 1.27 0 0 1-.887-.364L16.8 19.438a.905.905 0 0 0-1.243 0l-1.837 1.823a1.267 1.267 0 0 1-.887.365h-.786a.267.267 0 0 0-.094.019l-1.41-1.4a1.83 1.83 0 0 1 0-2.603l1.41-1.4c.03.011.06.019.094.019h.786c.33 0 .653.133.887.364l1.837 1.824a.88.88 0 0 0 .622.255.88.88 0 0 0 .62-.255l1.832-1.817c.233-.232.556-.365.887-.365h.638a.27.27 0 0 0 .1-.02z" fill="#32BCAD"/><path fill-rule="evenodd" clip-rule="evenodd" d="m32.955 24.108-.006-.039a1.817 1.817 0 0 1-.358.057.35.35 0 0 1-.235-.067c-.08-.064-.104-.167-.104-.279 0-.117.04-.228.147-.288a.558.558 0 0 1 .267-.06c.092 0 .181.016.275.042v-.3h.077v.934h-.063zm-.014-.56a.797.797 0 0 0-.268-.045c-.23 0-.338.077-.338.277 0 .19.089.273.262.273.104 0 .224-.024.344-.05v-.456zm1.144.578a.57.57 0 0 0 .266-.058c.108-.061.147-.172.147-.29 0-.111-.025-.214-.103-.278a.358.358 0 0 0-.235-.068c-.101 0-.244.032-.35.055v-.314h-.078v.935h.053l.003-.031c.1.032.199.05.297.05zm-.276-.569c.12-.027.24-.052.344-.052.173 0 .263.085.263.274 0 .2-.11.277-.339.277a.775.775 0 0 1-.268-.046v-.453zm.792.804v-.072c.038.004.073.007.098.007.096 0 .154-.028.208-.136l.025-.052-.347-.657h.09l.296.567h.005l.282-.567h.088l-.372.738c-.069.134-.142.178-.277.178a.806.806 0 0 1-.096-.006zm-7.908-.012v-.898h.063l.007.039c.106-.025.253-.058.358-.058.085 0 .166.013.235.068.078.064.103.167.103.279 0 .117-.04.228-.147.289a.57.57 0 0 1-.266.058.964.964 0 0 1-.276-.041v.264h-.077zm.421-.844c-.103 0-.224.025-.344.052v.455a.8.8 0 0 0 .268.044c.23 0 .339-.077.339-.277 0-.19-.09-.274-.263-.274zm9.233.603c.209 0 .323-.002.417-.062.065-.04.096-.095.096-.181 0-.127-.075-.185-.19-.211v-.005c.102-.042.142-.105.142-.198 0-.078-.027-.138-.092-.177-.092-.055-.202-.058-.382-.058h-.383v.892h.392zm.066-.375h-.257v.23h.258c.177 0 .244-.019.244-.115 0-.103-.092-.115-.245-.115zm-.047-.374h-.21v.235h.21c.175 0 .245-.021.245-.119 0-.104-.088-.116-.245-.116zm1.313.71.005.04h.146v-.39c0-.098-.014-.172-.09-.225-.074-.052-.193-.061-.309-.061-.087 0-.191.005-.284.012v.133a2.63 2.63 0 0 1 .243-.011c.187 0 .255.033.255.136v.012a3.931 3.931 0 0 0-.24-.01.614.614 0 0 0-.248.036.185.185 0 0 0-.112.178c0 .067.024.124.074.16.054.038.13.047.2.047.116 0 .247-.03.36-.057zm-.273-.247c.083 0 .162.004.239.01v.128c-.088.02-.192.039-.278.039-.104 0-.143-.031-.143-.089 0-.06.047-.088.182-.088zm1.289-.077v.363h.184v-.402c0-.094-.02-.159-.072-.206-.063-.056-.146-.067-.227-.067-.108 0-.238.03-.355.06l-.006-.042h-.151v.657h.185v-.484c.087-.021.189-.042.27-.042.11 0 .172.043.172.163zm.706.381c-.085 0-.178-.011-.246-.069-.082-.065-.105-.167-.105-.278 0-.104.034-.218.135-.281a.528.528 0 0 1 .291-.066c.076 0 .15.006.233.013v.141a2.351 2.351 0 0 0-.21-.012c-.177 0-.26.055-.26.206 0 .142.063.203.207.203.084 0 .182-.015.278-.034v.136a1.68 1.68 0 0 1-.323.041zm1.187-.069c-.081.055-.188.07-.318.07-.132 0-.238-.016-.318-.07-.092-.06-.125-.158-.125-.277 0-.118.033-.219.125-.279.08-.053.186-.069.318-.069.131 0 .236.016.318.07.092.06.123.16.123.277 0 .118-.033.219-.123.278zm-.318-.487c-.176 0-.253.055-.253.205s.076.213.253.213c.175 0 .25-.053.25-.203 0-.15-.074-.215-.25-.215zm-11.94.486a.5.5 0 0 1-.294.07.507.507 0 0 1-.297-.07c-.084-.058-.118-.155-.118-.276 0-.12.034-.217.118-.277a.507.507 0 0 1 .297-.07c.118 0 .219.016.295.07.085.06.118.157.118.276 0 .12-.034.219-.118.277zm-.294-.553c-.23 0-.332.071-.332.272 0 .194.1.281.332.281.228 0 .33-.07.33-.27 0-.195-.1-.283-.33-.283zm18.808-.33h-.185v.935h.185v-.935zm-5.065.953a.501.501 0 0 1-.323-.092c-.107-.089-.14-.225-.14-.372 0-.132.042-.288.182-.38.11-.07.244-.084.38-.084.1 0 .203.007.315.016v.16a4.054 4.054 0 0 0-.306-.014c-.256 0-.365.096-.365.302 0 .21.101.303.29.303.123 0 .261-.025.4-.053v.158a2.202 2.202 0 0 1-.433.056zm.668-.073c.074.06.172.073.281.073.133 0 .272-.022.399-.043v-.128a2.39 2.39 0 0 1-.353.034c-.186 0-.24-.066-.244-.166h.63c-.002-.135-.01-.25-.117-.324a.514.514 0 0 0-.287-.067.494.494 0 0 0-.29.07c-.092.065-.125.177-.125.277 0 .112.028.21.106.274zm.084-.348c.012-.1.071-.155.225-.155.153 0 .216.048.221.155h-.446zm1.452.04v.363h.183v-.402c0-.094-.02-.159-.072-.206-.063-.056-.145-.067-.227-.067-.107 0-.237.03-.354.06l-.006-.042h-.151v.657h.185v-.484c.086-.021.189-.042.27-.042.11 0 .172.043.172.163zm.71.381c-.09 0-.17-.024-.215-.093a.339.339 0 0 1-.049-.2v-.246h-.134v-.136h.134l.02-.2h.164v.2h.261v.136h-.261v.211c0 .051.004.094.018.125.02.045.063.062.121.062a.853.853 0 0 0 .132-.013v.131c-.06.012-.13.023-.191.023zm.361-.675v.657h.185v-.485a1.045 1.045 0 0 1 .325-.033v-.156c-.011-.002-.019-.002-.024-.002-.112 0-.2.025-.318.057l-.01.003-.007-.041h-.15zm1.216.618.005.04h.146v-.39c0-.098-.015-.172-.09-.225-.074-.052-.194-.062-.309-.062-.087 0-.191.006-.285.013v.133c.084-.008.172-.011.244-.011.187 0 .255.033.255.136v.012a3.85 3.85 0 0 0-.24-.01.612.612 0 0 0-.248.036.185.185 0 0 0-.112.178c0 .067.024.124.074.16.054.038.13.047.2.047.116 0 .247-.03.36-.057zm-.273-.247c.083 0 .161.004.239.01v.128a1.37 1.37 0 0 1-.278.039c-.104 0-.143-.031-.143-.089 0-.06.047-.088.182-.088zm-16.835-.26.256.546h.069l.273-.657h-.083l-.221.552h-.006l-.253-.552h-.07l-.247.552h-.006l-.227-.552h-.085l.273.657h.07l.251-.545h.006zm.815.491c.065.055.148.073.275.073.117 0 .239-.02.35-.04v-.069h-.003c-.106.018-.22.038-.34.038-.257 0-.302-.12-.305-.255h.68c0-.128-.018-.24-.114-.304a.467.467 0 0 0-.265-.063.447.447 0 0 0-.259.066c-.088.064-.123.176-.123.281 0 .11.026.207.104.273zm-.02-.322c.013-.136.085-.23.298-.23.214 0 .291.08.297.23h-.595zm.899-.28v.657h.077v-.55a1.09 1.09 0 0 1 .313-.053h.018v-.072h-.01a.96.96 0 0 0-.273.043l-.055.014-.007-.04h-.063zm.58.602c.065.055.148.073.275.073.117 0 .239-.02.349-.04v-.069h-.002c-.106.018-.22.038-.34.038-.258 0-.302-.12-.305-.255h.68c0-.128-.019-.24-.114-.304a.467.467 0 0 0-.265-.063.447.447 0 0 0-.259.066c-.088.064-.123.176-.123.281 0 .11.026.207.104.273zm-.02-.322c.013-.136.085-.23.298-.23.213 0 .29.08.297.23h-.595z" fill="#939598"/><defs><filter id="a" x="0" y="0" width="58" height="39" filterUnits="userSpaceOnUse" color-interpolation-filters="sRGB"><feFlood flood-opacity="0" result="BackgroundImageFix"/><feColorMatrix in="SourceAlpha" values="0 0 0 0 0 0 0 0 0 0 0 0 0 0 0 0 0 0 127 0"/><feOffset dy="1"/><feGaussianBlur stdDeviation="1"/><feColorMatrix values="0 0 0 0 0 0 0 0 0 0.0941176 0 0 0 0 0.207843 0 0 0 0.2 0"/><feBlend in2="BackgroundImageFix" result="effect1_dropShadow"/><feBlend in="SourceGraphic" in2="effect1_dropShadow" result="shape"/></filter></defs></svg>