<svg xmlns="http://www.w3.org/2000/svg" width="58" height="39" viewBox="0 0 58 39">
    <defs>
        <filter id="a" width="129.6%" height="145.7%" x="-14.8%" y="-22.9%" filterUnits="objectBoundingBox">
            <feOffset dy="2" in="SourceAlpha" result="shadowOffsetOuter1"/>
            <feGaussianBlur in="shadowOffsetOuter1" result="shadowBlurOuter1" stdDeviation="1"/>
            <feColorMatrix in="shadowBlurOuter1" result="shadowMatrixOuter1" values="0 0 0 0 0 0 0 0 0 0 0 0 0 0 0 0 0 0 0.117385643 0"/>
            <feMerge>
                <feMergeNode in="shadowMatrixOuter1"/>
                <feMergeNode in="SourceGraphic"/>
            </feMerge>
        </filter>
    </defs>
    <g fill="none" fill-rule="evenodd">
        <path fill="#FFF" fill-rule="nonzero" d="M52.2 35H1.8C.808 35 0 34.165 0 33.134V1.866C0 .836.807 0 1.8 0h50.4c.993 0 1.8.835 1.8 1.866v31.268c0 1.03-.807 1.866-1.8 1.866z" filter="url(#a)" transform="translate(2)"/>
        <path fill="#1428A0" d="M22.172 18.903c.74 0 1.529.248 2.17.91a3.12 3.12 0 0 1 .905 2.242c0 .403-.079.802-.235 1.186-.149.384-.364.721-.64 1.002a2.98 2.98 0 0 1-.988.69 2.77 2.77 0 0 1-1.15.232c-.324 0-.638-.051-.935-.15-.255-.084-.6-.272-.78-.488l-.067-.094v2.861h-1.314v-8.258h1.334v.608c.185-.296.544-.507.827-.601.282-.094.576-.14.873-.14zm12.183.133l1.84 4.243 1.694-4.243h1.416l-3.516 8.258h-1.383l1.128-2.605-2.587-5.653h1.408zm-5.247-.134c.297 0 .59.048.873.142.242.08.54.246.737.478l.089.12v-.605h1.334v6.018h-1.314v-.623c-.147.254-.556.487-.847.582-.296.1-.61.152-.935.152-.446 0-.786-.079-1.15-.233a2.988 2.988 0 0 1-.987-.69 2.928 2.928 0 0 1-.64-1.003 3.143 3.143 0 0 1-.236-1.186c0-.881.314-1.627.906-2.24a2.962 2.962 0 0 1 2.17-.912zm-6.978 1.17c-.488 0-.912.152-1.261.51-.357.37-.493.897-.493 1.424 0 .561.133 1.107.481 1.477.35.37.781.502 1.283.502a1.7 1.7 0 0 0 1.236-.524c.361-.364.532-.86.532-1.395 0-.583-.171-1.1-.52-1.47a1.7 1.7 0 0 0-1.258-.523zm7.02.001c-.523 0-.956.204-1.257.522-.35.37-.522.888-.522 1.47 0 .535.172 1.031.532 1.397.314.316.727.523 1.237.523.502 0 .933-.13 1.282-.502.348-.37.482-.916.482-1.478 0-.526-.138-1.053-.494-1.424-.348-.357-.773-.508-1.26-.508zM12.848 11c.691 0 1.633.158 1.721 1.132l.007.152v.359h-1.277v-.318c0-.273-.175-.46-.476-.46-.32 0-.431.178-.468.344a.627.627 0 0 0 .005.266c.145.598 2.089.91 2.305 1.98.02.108.067.396.003.838-.12.85-.88 1.162-1.81 1.162-.915 0-1.772-.31-1.852-1.322L11 14.976v-.393h1.371l.004.495c0 .277.193.462.513.462.343 0 .457-.174.499-.344a.673.673 0 0 0-.011-.378c-.262-.657-2.083-.957-2.304-2a1.842 1.842 0 0 1-.013-.684c.139-.832.881-1.134 1.789-1.134zm16.649.029c.681 0 1.612.156 1.7 1.12l.006.15v.352H29.94v-.313c0-.27-.173-.454-.473-.454-.316 0-.426.178-.462.34a.638.638 0 0 0 .008.261c.14.594 2.062.907 2.276 1.961.023.11.068.396.007.83-.122.843-.877 1.153-1.79 1.153-.909 0-1.758-.306-1.837-1.308l-.006-.156v-.39h1.361v.49c0 .276.191.455.508.455.337 0 .454-.168.495-.336.02-.096.041-.251-.011-.372-.261-.655-2.061-.95-2.28-1.983a1.618 1.618 0 0 1-.011-.68c.131-.828.87-1.12 1.771-1.12zm4.316.134v3.768c-.005.067.002.14.01.195.024.124.135.365.49.365.357 0 .467-.241.492-.365a.842.842 0 0 0 .011-.127l.001-.068v-3.768h1.299v3.651c0 .096-.011.287-.017.338-.086.95-.845 1.256-1.786 1.256-.942 0-1.696-.306-1.783-1.256a4.163 4.163 0 0 1-.012-.271v-3.718h1.295zm11.177-.137c.909 0 1.707.299 1.797 1.259.019.158.012.335.012.335v.165h-1.29v-.297c0-.034-.003-.124-.016-.18-.022-.112-.12-.37-.512-.37-.367 0-.479.245-.509.37a1.11 1.11 0 0 0-.019.24v2.33c0 .065.003.137.01.193.026.14.154.37.525.37.37 0 .499-.23.521-.37.01-.056.013-.128.013-.194v-.736h-.524v-.748h1.812v1.425a5.185 5.185 0 0 1-.017.28c-.085.924-.894 1.257-1.803 1.257-.905 0-1.71-.333-1.794-1.257a3.006 3.006 0 0 1-.018-.225l-.001-.11V12.62c0-.093.01-.254.022-.335.112-.958.886-1.259 1.791-1.259zm-26.232.138l.946 5.093h-1.378l-.683-4.624h-.03l-.7 4.624H15.53l.948-5.093h2.28zm4.168 0l.627 3.894h.027l.633-3.894H26.3l.114 5.093h-1.282l-.034-4.582h-.026l-.855 4.582h-1.296l-.859-4.582h-.028l-.032 4.582h-1.28l.116-5.093h2.088zm16.512 0l1.178 4h.027l-.069-4h1.268v5.045H40.02l-1.262-4.141h-.032l.072 4.14h-1.258v-5.045h1.899z"/>
    </g>
</svg>
