<svg xmlns="http://www.w3.org/2000/svg" width="58" height="39" viewBox="0 0 58 39">
    <defs>
        <filter id="a" width="129.6%" height="145.7%" x="-14.8%" y="-22.9%" filterUnits="objectBoundingBox">
            <feOffset dy="2" in="SourceAlpha" result="shadowOffsetOuter1"/>
            <feGaussianBlur in="shadowOffsetOuter1" result="shadowBlurOuter1" stdDeviation="1"/>
            <feColorMatrix in="shadowBlurOuter1" result="shadowMatrixOuter1" values="0 0 0 0 0 0 0 0 0 0 0 0 0 0 0 0 0 0 0.117385643 0"/>
            <feMerge>
                <feMergeNode in="shadowMatrixOuter1"/>
                <feMergeNode in="SourceGraphic"/>
            </feMerge>
        </filter>
    </defs>
    <g fill="none" fill-rule="evenodd">
        <path fill="#FFF" fill-rule="nonzero" d="M52.2 35H1.8C.808 35 0 34.165 0 33.134V1.866C0 .836.807 0 1.8 0h50.4c.993 0 1.8.835 1.8 1.866v31.268c0 1.03-.807 1.866-1.8 1.866z" filter="url(#a)" transform="translate(2)"/>
        <path fill="#053D4E" d="M30.605 16.215c.027 0 .052.02.052.052v1.101h.899c.023 0 .052.018.052.052v.894c0 .032-.028.051-.052.051h-.899v1.829c0 .19.11.305.379.305h.52c.035 0 .052.03.052.051v.786c0 .029-.024.044-.035.049-.314.115-.492.185-.857.185-.906 0-1.274-.52-1.274-1.253v-1.952h-.511a.052.052 0 0 1-.052-.051v-.701c0-.024.018-.044.036-.05.018-.004.677-.195.677-.195l.364-1.118a.053.053 0 0 1 .05-.035h.599zm17.392 0c.027 0 .052.02.052.052v1.101h.899c.023 0 .052.018.052.052v.894c0 .032-.028.051-.052.051h-.899v1.829c0 .19.11.305.379.305h.52c.035 0 .052.03.052.051v.786c0 .029-.024.044-.035.049-.314.115-.492.185-.857.185-.906 0-1.274-.52-1.274-1.253v-1.952h-.511a.052.052 0 0 1-.052-.051v-.701c0-.024.018-.044.036-.05.018-.004.677-.195.677-.195l.364-1.118a.053.053 0 0 1 .05-.035h.599zm-7.242 1.071c1.077 0 1.708.255 1.708 1.392v2.758c0 .03-.026.051-.053.051h-1.062a.052.052 0 0 1-.05-.038l-.094-.33-.01-.033-.057.071c-.29.32-.66.412-1.099.412-.79 0-1.211-.6-1.211-1.31 0-1.07.799-1.284 1.396-1.284h1.024v-.271c0-.32-.225-.401-1.057-.41l-.175-.001c-.412 0-.852.032-.875.032-.025 0-.052-.022-.052-.051v-.748c0-.027.022-.047.042-.05.58-.111 1.116-.19 1.625-.19zm-14.046 0c1.489 0 2.011.832 2.011 2.142 0 1.318-.522 2.142-2.011 2.142-1.48 0-2.003-.824-2.003-2.142 0-1.31.523-2.142 2.003-2.142zm-4.972-1.565c.033 0 .052.026.052.051v2.041h.017c.295-.362.739-.527 1.226-.527.875 0 1.155.56 1.155 1.301v2.849c0 .023-.02.051-.053.051h-1.11a.052.052 0 0 1-.052-.051v-2.744c0-.321-.343-.42-.562-.42-.219 0-.62.14-.62.543v2.62a.052.052 0 0 1-.053.052h-1.11c-.025 0-.053-.02-.053-.051v-5.664c0-.027.022-.051.052-.051h1.111zm15.457 1.565c.875 0 1.154.56 1.154 1.302v2.848c0 .03-.026.051-.052.051h-1.117a.052.052 0 0 1-.053-.051V18.71c0-.321-.31-.446-.528-.446-.254 0-.63.158-.647.52v2.65c0 .026-.02.052-.053.052h-1.117a.052.052 0 0 1-.052-.051V18.71c0-.321-.329-.446-.568-.446-.219 0-.608.166-.608.57v2.6a.052.052 0 0 1-.051.052H32.39a.052.052 0 0 1-.052-.051V17.42c0-.03.025-.052.053-.052h1.003c.025 0 .045.019.05.036l.116.41h.017c.294-.363.732-.528 1.22-.528.597 0 .885.264 1.044.667h.034c.303-.494.83-.667 1.319-.667zm8.509 0c.026 0 .053.02.053.052v1.12a.053.053 0 0 1-.052.052h-.284c-.766 0-1.033.3-1.033.67v2.256c0 .033-.029.051-.052.051h-1.11a.052.052 0 0 1-.053-.051V17.42c0-.029.025-.052.052-.052h.993c.028 0 .048.02.052.043l.118.625h.017c.267-.54.822-.736 1.299-.75zm-4.472 3.756h-.049l.012.044.037-.044zm.016-1.334h-.667l-.103.004c-.295.025-.481.165-.481.496 0 .399.292.49.574.49.239 0 .609-.128.67-.543l.007-.12v-.327zM26.71 18.29c-.58 0-.688.428-.688 1.137 0 .708.107 1.143.688 1.143.589 0 .696-.435.696-1.143 0-.709-.107-1.137-.696-1.137z"/>
        <path fill="#F04E23" d="M14.251 11.003c.032-.01.07.007.042.05-.367.576-.572 1.498-.032 2.36.324.517.66.56.844.403.229-.196.17-.771.071-.955-.016-.03.019-.056.048-.037 1.443.956.763 2.333 1.42 2.376.371.025.356-.388.292-.617-.01-.04.034-.056.06-.017.96 1.499 1.352 3.333 1.293 4.453l.001.041c-.02 2.512-2.118 4.532-4.683 4.511-2.565-.02-4.628-2.074-4.607-4.586a4.591 4.591 0 0 1 .017-.334c.01-.129.033-.305.027-.266l.039-.293c.246-1.57 1.122-3.205 2.085-4.19.023-.024.067-.004.049.033-.125.264-.386 1.02-.024 1.043.121.008.182-.065.253-.205.423-.836.82-3.128 2.805-3.77zm-.588 5.91c-1.19-.01-2.162.927-2.172 2.092-.01 1.166.947 2.118 2.137 2.127 1.19.01 2.162-.927 2.172-2.092.01-1.165-.947-2.118-2.137-2.127z"/>
    </g>
</svg>
